<svg width="39.355" height="86.524" viewBox="0 0 39.355 86.524" xmlns="http://www.w3.org/2000/svg"><g id="svgGroup" stroke-linecap="round" fill-rule="evenodd" font-size="9pt" stroke="#000" stroke-width="0.25mm" fill="#000" style="stroke:#000;stroke-width:0.25mm;fill:#000"><path d="M 39.355 15.43 L 0 15.43 L 0 18.164 L 17.92 18.164 L 17.92 83.887 L 0 83.887 L 0 86.524 L 39.355 86.524 L 39.355 83.887 L 20.752 83.887 L 20.752 18.164 L 39.355 18.164 L 39.355 15.43 Z M 16.699 2.735 A 2.546 2.546 0 0 0 17.455 4.59 A 3.081 3.081 0 0 0 17.505 4.639 A 2.732 2.732 0 0 0 19.482 5.42 Q 20.654 5.42 21.46 4.639 Q 22.266 3.858 22.314 2.735 A 2.583 2.583 0 0 0 21.535 0.857 A 3.272 3.272 0 0 0 21.484 0.806 Q 20.654 0 19.482 0 Q 18.311 0 17.505 0.831 A 2.94 2.94 0 0 0 16.93 1.655 A 2.567 2.567 0 0 0 16.699 2.735 Z" vector-effect="non-scaling-stroke"/></g></svg>