<svg width="44.287" height="72.071" viewBox="0 0 44.287 72.071" xmlns="http://www.w3.org/2000/svg"><g id="svgGroup" stroke-linecap="round" fill-rule="evenodd" font-size="9pt" stroke="#000" stroke-width="0.25mm" fill="#000" style="stroke:#000;stroke-width:0.25mm;fill:#000"><path d="M 1.758 72.071 L 44.287 72.071 L 44.287 69.434 L 5.225 69.434 L 25.83 45.41 Q 28.174 42.725 30.737 39.698 A 61.589 61.589 0 0 0 35.449 33.35 Q 37.598 30.03 39.038 26.465 A 19.503 19.503 0 0 0 40.479 19.092 A 22.788 22.788 0 0 0 40.058 14.626 A 18.266 18.266 0 0 0 38.989 11.109 A 17.206 17.206 0 0 0 34.814 5.078 A 17.986 17.986 0 0 0 28.751 1.397 A 20.598 20.598 0 0 0 28.467 1.294 A 22.757 22.757 0 0 0 22.849 0.103 A 27.381 27.381 0 0 0 20.459 0 A 20.759 20.759 0 0 0 15.283 0.626 A 17.931 17.931 0 0 0 12.28 1.685 A 20.321 20.321 0 0 0 5.908 6.201 Q 3.223 9.082 1.685 12.915 A 23.839 23.839 0 0 0 0 21.045 L 2.637 21.045 Q 2.783 17.285 4.102 13.941 A 18.686 18.686 0 0 1 7.764 8.057 A 16.942 16.942 0 0 1 13.281 4.102 Q 16.504 2.637 20.459 2.637 A 22.034 22.034 0 0 1 24.93 3.076 A 18.771 18.771 0 0 1 27.393 3.76 A 16.689 16.689 0 0 1 31.845 6.111 A 15.456 15.456 0 0 1 32.91 6.983 A 15.071 15.071 0 0 1 36.458 12.088 A 17.195 17.195 0 0 1 36.499 12.183 A 16.188 16.188 0 0 1 37.633 16.479 A 20.688 20.688 0 0 1 37.793 19.092 A 18.272 18.272 0 0 1 36.572 25.66 A 35.821 35.821 0 0 1 33.496 31.836 Q 31.592 34.815 29.346 37.5 Q 27.1 40.186 25.049 42.578 L 1.758 69.434 L 1.758 72.071 Z" vector-effect="non-scaling-stroke"/></g></svg>